<?xml version="1.0" encoding="UTF-8" standalone="no"?>
<!-- Created with Inkscape (http://www.inkscape.org/) -->

<svg
   width="48"
   height="48"
   viewBox="0 0 12.7 12.7"
   version="1.1"
   id="svg939"
   inkscape:version="1.1.2 (0a00cf5339, 2022-02-04)"
   sodipodi:docname="Category-Cyber.svg"
   xmlns:inkscape="http://www.inkscape.org/namespaces/inkscape"
   xmlns:sodipodi="http://sodipodi.sourceforge.net/DTD/sodipodi-0.dtd"
   xmlns:xlink="http://www.w3.org/1999/xlink"
   xmlns="http://www.w3.org/2000/svg"
   xmlns:svg="http://www.w3.org/2000/svg">
  <sodipodi:namedview
     id="namedview941"
     pagecolor="#ffffff"
     bordercolor="#666666"
     borderopacity="1.0"
     inkscape:pageshadow="2"
     inkscape:pageopacity="0.0"
     inkscape:pagecheckerboard="0"
     inkscape:document-units="mm"
     showgrid="false"
     units="px"
     inkscape:zoom="8"
     inkscape:cx="13.0625"
     inkscape:cy="32.875"
     inkscape:window-width="1920"
     inkscape:window-height="1022"
     inkscape:window-x="1920"
     inkscape:window-y="0"
     inkscape:window-maximized="1"
     inkscape:current-layer="layer1" />
  <defs
     id="defs936">
    <linearGradient
       inkscape:collect="always"
       id="linearGradient5049">
      <stop
         style="stop-color:#000000;stop-opacity:1;"
         offset="0"
         id="stop5045" />
      <stop
         style="stop-color:#000000;stop-opacity:0;"
         offset="1"
         id="stop5047" />
    </linearGradient>
    <marker
       style="overflow:visible"
       id="marker28752"
       refX="0"
       refY="0"
       orient="auto"
       inkscape:stockid="Arrow2Lend"
       inkscape:isstock="true">
      <path
         transform="matrix(-1.1,0,0,-1.1,-1.1,0)"
         d="M 8.7185878,4.0337352 -2.2072895,0.01601326 8.7185884,-4.0017078 c -1.7454984,2.3720609 -1.7354408,5.6174519 -6e-7,8.035443 z"
         style="fill:context-stroke;fill-rule:evenodd;stroke:context-stroke;stroke-width:0.625;stroke-linejoin:round"
         id="path28750" />
    </marker>
    <marker
       style="overflow:visible"
       id="marker4247"
       refX="0"
       refY="0"
       orient="auto"
       inkscape:stockid="Arrow2Lend"
       inkscape:isstock="true">
      <path
         transform="matrix(-1.1,0,0,-1.1,-1.1,0)"
         d="M 8.7185878,4.0337352 -2.2072895,0.01601326 8.7185884,-4.0017078 c -1.7454984,2.3720609 -1.7354408,5.6174519 -6e-7,8.035443 z"
         style="fill:context-stroke;fill-rule:evenodd;stroke:context-stroke;stroke-width:0.625;stroke-linejoin:round"
         id="path4245" />
    </marker>
    <marker
       style="overflow:visible"
       id="Arrow2Lend"
       refX="0"
       refY="0"
       orient="auto"
       inkscape:stockid="Arrow2Lend"
       inkscape:isstock="true">
      <path
         transform="matrix(-1.1,0,0,-1.1,-1.1,0)"
         d="M 8.7185878,4.0337352 -2.2072895,0.01601326 8.7185884,-4.0017078 c -1.7454984,2.3720609 -1.7354408,5.6174519 -6e-7,8.035443 z"
         style="fill:context-stroke;fill-rule:evenodd;stroke:context-stroke;stroke-width:0.625;stroke-linejoin:round"
         id="path28493" />
    </marker>
    <linearGradient
       inkscape:collect="always"
       xlink:href="#linearGradient5049"
       id="linearGradient5051"
       x1="6.002912"
       y1="8.3606129"
       x2="6.002912"
       y2="2.4171026"
       gradientUnits="userSpaceOnUse" />
  </defs>
  <g
     inkscape:label="Layer 1"
     inkscape:groupmode="layer"
     id="layer1">
    <g
       id="g1189"
       transform="matrix(0.0063558,0,0,0.0063558,1.2900705,0.35444219)">
      <title
         id="title1183">Layer 1</title>
      <path
         fill="#0b2844"
         fill-rule="evenodd"
         stroke="#666666"
         stroke-width="7"
         id="path2"
         d="m 758.82434,154.83333 h 6.38342 l 27.49787,13.27772 q 27.49792,13.27773 36.33655,17.39839 8.8385,4.12069 60.15155,26.78435 51.31298,22.6637 53.03161,22.89264 1.71857,0.22891 27.25232,10.75952 25.53381,10.53061 39.28264,15.56699 13.749,5.03638 39.7738,13.73556 26.0247,8.69919 32.8993,10.98847 6.8745,2.28924 17.1861,5.4942 10.3117,3.20499 26.5158,7.78351 16.2041,4.57852 41.2468,10.98846 25.0427,6.40991 48.6123,11.44629 23.5696,5.03638 30.4441,6.40994 6.8744,1.37357 43.702,7.78348 36.8274,6.40994 46.1571,7.78351 9.3296,1.37353 45.6661,6.86777 36.3365,5.49423 36.8274,5.49423 0.4911,0 35.3545,6.40994 34.8633,6.40991 35.1089,6.63883 l 0.2455,0.22897 -1.4731,68.21997 q -1.4731,68.22 -7.3654,176.27313 -5.8925,108.05316 -9.3298,151.09125 -3.4372,43.03815 -7.8565,73.71423 -4.4192,30.67609 -10.3116,58.14728 -5.8925,27.47107 -12.767,55.40009 -6.8745,27.92895 -12.2759,48.99015 -5.4013,21.0612 -12.7667,45.3274 -7.3656,24.2662 -8.8387,29.3025 -1.4729,5.0365 -4.4192,12.8199 -2.9462,7.7835 -6.8745,19.2298 -3.9283,11.4463 -12.2758,32.9654 -8.3477,21.5191 -13.749,34.3389 -5.4014,12.8198 -13.2578,30.6762 -7.8566,17.8562 -20.1325,43.038 -12.2757,25.182 -14.7309,29.3027 -2.4552,4.1206 -17.9228,29.9892 -15.4675,25.8687 -18.6593,30.6762 -3.1917,4.8075 -15.222,24.2662 -12.0303,19.4586 -15.713,24.724 -3.6828,5.2652 -11.2939,16.4827 -7.6109,11.2172 -12.2758,17.3983 -4.6647,6.1811 -10.8028,14.6512 -6.1378,8.4702 -11.7848,15.567 -5.6468,7.0967 -8.8385,11.9042 -3.1917,4.8075 -9.3295,12.3619 -6.1381,7.5546 -11.785,15.1092 -5.6469,7.5547 -12.2758,15.567 -6.6289,8.0124 -11.2937,13.7356 -4.6648,5.723 -19.887,21.748 -15.2219,16.0248 -35.8453,36.6282 -20.6235,20.6033 -36.3365,35.2545 -15.713,14.6514 -20.869,18.543 -5.1559,3.8918 -24.0606,19.6877 -18.90472,15.7958 -23.07854,19.2298 -4.17377,3.4339 -20.62342,16.9407 -16.44958,13.5065 -21.60547,17.3983 -5.15582,3.8917 -11.78479,9.1569 -6.6289,5.2653 -18.41375,14.4225 -11.78479,9.157 -17.92267,13.5066 -6.13794,4.3496 -11.78485,7.7835 -5.64685,3.4339 -20.62335,11.9041 -14.97657,8.4703 -19.64136,11.4463 -4.66486,2.976 -10.55719,6.1812 -5.89246,3.2048 -12.27588,7.3254 -6.38342,4.1208 -9.32959,5.9522 -2.94623,1.8314 -12.76691,6.4099 -9.82068,4.5785 -23.56964,10.5305 -13.7489,5.9522 -19.15027,7.7837 l -5.40136,1.8313 -5.8924,-1.3735 q -5.89245,-1.3737 -12.76684,-4.5785 -6.87452,-3.205 -23.07862,-10.9886 -16.2041,-7.7834 -18.6593,-9.6148 -2.45514,-1.8314 -12.5213,-8.0124 -10.06616,-6.1811 -15.22211,-9.1572 -5.15582,-2.9759 -20.13232,-11.4463 -14.9765,-8.4702 -20.62341,-11.9041 -5.64686,-3.4339 -11.78479,-7.7834 -6.13794,-4.3497 -13.99445,-10.3017 -7.85651,-5.9522 -20.8689,-16.2538 -13.01245,-10.3018 -22.58752,-17.8563 -9.5752,-7.5545 -27.98895,-22.8925 -18.41376,-15.3381 -23.56958,-19.2298 -5.15586,-3.8918 -22.58756,-18.3141 -17.43164,-14.4224 -19.39584,-16.2537 -1.96411,-1.8315 -17.43167,-16.2539 -15.46753,-14.4224 -21.60547,-20.6033 -6.13791,-6.181 -27.00684,-27.4712 -20.86889,-21.29 -25.04266,-26.0976 -4.1738,-4.8074 -12.27585,-14.1934 -8.10205,-9.386 -12.76688,-15.1091 -4.66479,-5.723 -9.32965,-11.9042 -4.66482,-6.1809 -9.82065,-12.8198 -5.15585,-6.6388 -9.32965,-11.9042 -4.17376,-5.2652 -7.11999,-9.3858 -2.9462,-4.1208 -8.10205,-10.7597 -5.15583,-6.6388 -8.83856,-11.904 -3.6828,-5.2654 -9.82068,-13.7356 -6.13791,-8.4703 -9.32965,-13.2778 -3.19172,-4.8074 -10.31171,-15.1091 -7.11997,-10.3017 -9.32962,-14.1935 -2.20966,-3.8916 -12.27585,-19.6877 -10.06616,-15.7958 -13.2579,-20.6033 -3.19173,-4.8075 -15.95858,-26.3264 -12.76687,-21.519 -19.15029,-32.5076 -6.38344,-10.9884 -11.29378,-20.6032 -4.91033,-9.615 -13.74893,-28.8448 -8.8386,-19.2298 -8.8386,-19.6878 0,-0.4577 -8.8386,-21.0611 -8.83861,-20.6032 -13.74894,-32.5074 -4.91034,-11.9043 -13.74894,-36.1704 -8.8386,-24.2661 -17.6772,-51.7373 -8.83861,-27.4712 -19.641338,-66.8465 Q 79.234108,963.8584 74.814811,944.62854 70.395507,925.3988 62.53897,888.77051 54.682429,852.14239 53.209338,840.6961 51.736228,829.24975 46.8259,770.64465 41.915568,712.03961 40.44247,682.27917 38.969371,652.5188 37.005229,619.09558 35.041099,585.67236 31.60386,509.66888 28.166629,433.66537 28.166629,402.07357 v -31.59179 l 3.191721,-1.60248 q 3.191721,-1.60251 17.431688,-3.89175 14.239971,-2.28925 39.282669,-5.95209 25.042703,-3.66281 76.110183,-11.90415 51.06747,-8.24136 73.16399,-11.90417 22.09648,-3.66281 58.43296,-11.44632 36.33646,-7.78348 62.85227,-14.65125 26.51581,-6.86779 45.66611,-12.81988 19.15033,-5.95206 29.95306,-9.15704 10.80273,-3.20496 20.62341,-6.40992 9.82062,-3.20498 39.28266,-13.73556 29.46197,-10.53061 55.24127,-21.29015 25.77923,-10.75953 27.4978,-10.98846 1.71869,-0.22891 24.79724,-10.30167 23.07855,-10.07274 41.73786,-18.3141 18.65924,-8.24132 36.82745,-16.48266 18.16827,-8.24135 45.17511,-21.51908 l 27.00684,-13.27771 h 6.38342 z" />
      <polyline
         id="svg_1"
         points="587.5834302538931,1629.499896291144 587.5834302538931,1629.499896291144 "
         stroke-linecap="round"
         stroke-dasharray="none"
         stroke-width="2px"
         stroke="#000000"
         fill="none" />
      <polyline
         id="svg_2"
         points="654.2500991821289,1696.1665420532227 654.2500991821289,1696.1665420532227 "
         stroke-linecap="round"
         stroke-dasharray="none"
         stroke-width="2px"
         stroke="#000000"
         fill="none" />
      <path
         id="svg_4"
         fill="#ffffff"
         fill-rule="evenodd"
         stroke="#000000"
         stroke-width="2px"
         d="m 753.78784,66.16658 h 5.90839 l 25.4516,13.846329 q 25.45184,13.846359 33.63275,18.143509 8.18078,4.297152 55.6756,27.931412 47.49462,23.63426 49.08532,23.87303 1.5907,0.23871 25.22431,11.22031 23.63385,10.98153 36.35974,16.23362 12.72595,5.25209 36.81395,14.3238 24.0882,9.07176 30.4512,11.45906 6.363,2.38733 15.9073,5.7295 9.5443,3.34223 24.5426,8.11684 14.9984,4.7746 38.1777,11.45905 23.1791,6.68446 44.995,11.9365 21.8156,5.25205 28.1785,6.68444 6.363,1.4324 40.4502,8.11685 34.0869,6.6844 42.7224,8.11684 8.6354,1.43234 42.268,7.16186 33.6325,5.72949 34.0871,5.72949 0.4544,0 32.7237,6.68448 32.269,6.68445 32.4963,6.92316 l 0.2271,0.23877 -1.3635,71.14154 q -1.3633,71.1416 -6.8173,183.82224 -5.4539,112.6806 -8.6353,157.56176 -3.1816,44.88135 -7.272,76.87116 -4.0903,31.98987 -9.5443,60.63745 -5.454,28.64758 -11.817,57.7727 -6.3628,29.125 -11.3625,51.0882 -4.9994,21.9632 -11.8166,47.2685 -6.8176,25.30552 -8.181,30.55742 -1.3633,5.2521 -4.0905,13.369 -2.7268,8.1168 -6.3628,20.0533 -3.6361,11.9365 -11.3623,34.377 -7.7266,22.4407 -12.7261,35.8096 -4.9994,13.3689 -12.2711,31.9899 -7.2721,18.6208 -18.6344,44.8812 -11.3623,26.2605 -13.6349,30.5575 -2.2724,4.2972 -16.589,31.2737 -14.3166,26.9764 -17.2708,31.9896 -2.9543,5.0134 -14.0894,25.3057 -11.1351,20.2918 -14.5438,25.7827 -3.4087,5.4908 -10.4534,17.1884 -7.0445,11.6979 -11.3623,18.1436 -4.3176,6.4459 -9.9989,15.2788 -5.6811,8.8329 -10.9078,16.2335 -5.2268,7.4008 -8.1811,12.4141 -2.9539,5.0133 -8.6352,12.8914 -5.6813,7.878 -10.908,15.7562 -5.2267,7.878 -11.3623,16.2337 -6.1357,8.3555 -10.4533,14.3238 -4.3178,5.968 -18.4072,22.6793 -14.0892,16.7112 -33.1781,38.1969 -19.0887,21.4855 -33.6325,36.7643 -14.5436,15.2789 -19.3161,19.3373 -4.7721,4.0583 -22.27016,20.5306 -17.49793,16.4724 -21.36127,20.0533 -3.86304,3.5811 -19.08875,17.6662 -15.22546,14.0849 -19.99774,18.1433 -4.77215,4.0585 -10.90783,9.5492 -6.13562,5.4907 -17.04358,15.0401 -10.90778,9.5492 -16.58887,14.085 -5.68134,4.536 -10.90808,8.1168 -5.2265,3.5811 -19.08869,12.4141 -13.86212,8.8329 -18.17981,11.9365 -4.31768,3.1033 -9.77154,6.4458 -5.45404,3.3421 -11.36237,7.6392 -5.90844,4.2972 -8.63543,6.207 -2.72693,1.9099 -11.81684,6.6843 -9.08996,4.7746 -21.81579,10.9817 -12.72583,6.2069 -17.72522,8.117 l -4.99945,1.9098 -5.45392,-1.4325 q -5.45404,-1.4325 -11.8169,-4.7746 -6.36291,-3.3421 -21.3612,-11.4591 -14.99848,-8.1167 -17.27094,-10.0266 -2.27246,-1.9098 -11.5896,-8.3556 -9.31708,-6.4457 -14.08929,-9.5492 -4.77216,-3.1035 -18.63422,-11.9366 -13.86218,-8.8328 -19.0888,-12.4138 -5.22669,-3.581 -10.90784,-8.1167 -5.68127,-4.5361 -12.95306,-10.743 -7.27198,-6.2069 -19.31604,-16.9499 -12.04425,-10.7428 -20.9068,-18.621 -8.86267,-7.8779 -25.90613,-23.8727 -17.04364,-15.9952 -21.8158,-20.0536 -4.77221,-4.0584 -20.9068,-19.0983 -16.13449,-15.0401 -17.95254,-16.9498 -1.81793,-1.9099 -16.13455,-16.95 -14.31656,-15.0399 -19.99778,-21.4856 -5.68112,-6.4457 -24.99719,-28.6477 -19.31598,-22.2017 -23.17917,-27.2152 -3.86325,-5.0133 -11.36239,-14.8012 -7.49915,-9.7881 -11.81687,-15.7561 -4.31762,-5.9684 -8.6354,-12.4142 -4.31775,-6.4455 -9.08985,-13.3689 -4.77218,-6.9229 -8.6354,-12.4139 -3.86319,-5.4909 -6.59024,-9.7877 -2.72699,-4.2973 -7.49915,-11.2205 -4.77212,-6.9231 -8.18085,-12.4139 -3.40875,-5.4909 -9.08987,-14.3239 -5.68118,-8.833 -8.6355,-13.8463 -2.95416,-5.0133 -9.54431,-15.756 -6.59021,-10.743 -8.63541,-14.8014 -2.04522,-4.0583 -11.36233,-20.5309 -9.31717,-16.4724 -12.27139,-21.4857 -2.9542,-5.0134 -14.77104,-27.4538 -11.81688,-22.4406 -17.72527,-33.8997 -5.90848,-11.4591 -10.4534,-21.4857 -4.54497,-10.0267 -12.72588,-30.08 -8.18089,-20.0533 -8.18089,-20.531 0,-0.4774 -8.18088,-21.9631 -8.18091,-21.4855 -12.72589,-33.8997 -4.54492,-12.4138 -12.72581,-37.7192 -8.18093,-25.3053 -16.36182,-53.9531 -8.18089,-28.64766 -18.17978,-69.70906 -9.99887,-41.06147 -14.08933,-61.11493 -4.09047,-20.05329 -11.3624,-58.25006 -7.2719,-38.1969 -8.63539,-50.13331 -1.363448,-11.93658 -5.908408,-73.05157 -4.54493,-61.11481 -5.908417,-92.14972 -1.363495,-31.03491 -3.181473,-65.88953 -1.81797,-34.85461 -4.999451,-114.113 -3.18145,-79.25839 -3.18145,-112.20313 v -32.94476 l 2.954239,-1.67108 q 2.95417,-1.67115 16.134544,-4.05847 13.180306,-2.38727 36.359546,-6.20694 23.17923,-3.81971 70.4467,-12.41394 47.26739,-8.5943 67.71969,-12.41401 20.45221,-3.81967 54.08484,-11.93652 33.63257,-8.11679 58.17527,-15.2787 24.54272,-7.16191 42.268,-13.36888 17.72534,-6.20699 27.72418,-9.54921 9.9989,-3.34223 19.08884,-6.68445 9.08981,-3.34221 36.35947,-14.32378 27.26965,-10.98164 51.13067,-22.20193 23.86096,-11.22032 25.45172,-11.45903 1.59076,-0.23871 22.95197,-10.74287 21.36127,-10.50409 38.63208,-19.0984 17.27075,-8.59426 34.08703,-17.18855 16.81635,-8.594295 41.81354,-22.440632 l 24.99719,-13.846352 h 5.90845 z" />
    </g>
    <text
       id="text4026"
       style="font-weight:bold;font-size:3.175px;line-height:0%;font-family:eurofurence;fill:#ffffff;stroke-width:0.264583"
       xml:space="preserve"
       y="319.10852"
       x="-215.29745">                </text>
    <text
       id="text4039-0"
       style="font-size:3.175px;line-height:0%;font-family:EurostileT;fill:#ffffff;stroke-width:0.264583"
       xml:space="preserve"
       y="214.46663"
       x="-179.35732">                </text>
    <path
       id="rect4640"
       style="opacity:1;fill:url(#linearGradient5051);fill-opacity:1;stroke:#000000;stroke-width:0.42;stroke-miterlimit:4;stroke-dasharray:none;stroke-opacity:1"
       d="m 5.1183709,2.6271657 c -0.215788,0.0048 -0.435178,0.03764 -0.652565,0.09878 -0.930089,0.261641 -1.636398,1.013155 -1.84395,1.954718 -0.610758,0.12194 -1.133918,0.571704 -1.314113,1.21235 -0.255813,0.90941 0.275988,1.854554 1.185397,2.110327 0.01487,0.0042 0.03002,0.0052 0.0449,0.009 0.125604,0.04492 0.259698,0.07184 0.401122,0.07184 h 6.594643 c 0.236003,0 0.453065,-0.07091 0.6376101,-0.188587 0.737087,-0.351931 1.138715,-1.189546 0.909996,-2.002615 -0.168973,-0.600702 -0.639006,-1.03594 -1.2003711,-1.188392 -0.0049,-0.02006 -0.0093,-0.03983 -0.01497,-0.05987 -0.255813,-0.909409 -1.200978,-1.44121 -2.110326,-1.185397 -0.174573,0.04911 -0.335519,0.127172 -0.481941,0.22451 -0.501427,-0.673548 -1.305027,-1.075723 -2.155249,-1.056681 z"
       inkscape:transform-center-x="-0.12456728"
       inkscape:transform-center-y="-0.32449416" />
  </g>
</svg>
